<svg width="1080" height="960" viewBox="0 0 1080 960" fill="none" xmlns="http://www.w3.org/2000/svg">
<path d="M504.715 594.876L481.154 596.307C481.154 596.307 471.492 607.961 469.78 617.033C468.9 621.694 469.234 624.437 469.458 629.174C469.659 633.426 470.209 635.774 470.691 640.002C471.173 644.231 470.985 646.68 471.925 650.83C472.674 654.141 472.213 656.669 474.574 659.108C478.315 662.973 482.972 659.682 488.344 659.419C493.183 659.182 496.289 660.081 500.671 658.015C503.233 656.806 504.567 655.781 506.534 653.743C508.577 651.625 510.707 647.469 510.707 647.469C510.707 647.469 510.126 637.957 508.943 631.988C507.614 625.276 504.908 621.966 503.969 615.188C502.879 607.325 504.715 594.876 504.715 594.876Z" fill="#D9D9D9"/>
<path d="M567.566 625.949C567.125 619.115 568.64 609.191 568.64 609.191C568.64 609.191 570.265 601.412 572.82 597.746C574.821 594.876 577.463 590.361 577.463 590.361L600.924 587.688C600.924 587.688 600.506 594.652 602.003 597.163C603.751 600.095 604.444 603.965 604.99 607.334C606.08 614.056 606.019 616.359 606.789 623.125C607.45 628.924 609.863 633.66 608.64 639.367C607.51 644.64 607.82 644.54 603.809 648.144C599.809 651.738 594.553 650.939 589.868 651.103C586.11 651.235 579.563 653.317 575.728 651.343C570.804 648.809 571.677 645.78 569.258 640.798C566.709 635.548 567.943 631.773 567.566 625.949Z" fill="#D9D9D9"/>
<path d="M504.715 594.876L481.154 596.307C481.154 596.307 471.492 607.961 469.78 617.033C468.9 621.694 469.234 624.437 469.458 629.174C469.659 633.426 470.209 635.774 470.691 640.002C471.173 644.231 470.985 646.68 471.925 650.83C472.674 654.141 472.213 656.669 474.574 659.108C478.315 662.973 482.972 659.682 488.344 659.419C493.183 659.182 496.289 660.081 500.671 658.015C503.233 656.806 504.567 655.781 506.534 653.743C508.577 651.625 510.707 647.469 510.707 647.469C510.707 647.469 510.126 637.957 508.943 631.988C507.614 625.276 504.908 621.966 503.969 615.188C502.879 607.325 504.715 594.876 504.715 594.876Z" stroke="white"/>
<path d="M567.566 625.949C567.125 619.115 568.64 609.191 568.64 609.191C568.64 609.191 570.265 601.412 572.82 597.746C574.821 594.876 577.463 590.361 577.463 590.361L600.924 587.688C600.924 587.688 600.506 594.652 602.003 597.163C603.751 600.095 604.444 603.965 604.99 607.334C606.08 614.056 606.019 616.359 606.789 623.125C607.45 628.924 609.863 633.66 608.64 639.367C607.51 644.64 607.82 644.54 603.809 648.144C599.809 651.738 594.553 650.939 589.868 651.103C586.11 651.235 579.563 653.317 575.728 651.343C570.804 648.809 571.677 645.78 569.258 640.798C566.709 635.548 567.943 631.773 567.566 625.949Z" stroke="white"/>
<path d="M445.222 358.004L445.165 368.553L450.552 367.94C450.552 367.94 451.323 367.338 451.206 373.682C451.089 380.026 452.299 390.645 452.299 390.645C452.299 390.645 452.236 400.737 454.927 406.342C457.526 411.753 460.073 414.558 465.06 417.912C469.333 420.786 477.357 422.691 477.357 422.691C477.357 422.691 490.153 426.024 498.479 427.556C507.563 429.227 521.923 430.701 521.923 430.701L522.577 436.444C520.146 438.152 518.673 438.881 515.819 439.759C512.965 440.636 502.169 443.62 493.975 446.974C493.975 446.974 483.639 456.159 479.077 463.577C475.493 469.406 474.001 472.791 471.274 479.065C468.286 485.936 466.755 490.111 464.444 497.237C460.652 508.929 456.786 527.446 456.786 527.446C456.786 527.446 450.871 556.007 454.636 573.247C456.055 579.746 456.157 584.079 460.246 589.331C469.125 600.738 482.72 598.001 496.866 597.439C519.261 596.55 532.199 597.24 554.551 595.593C580.648 593.669 610.971 597.04 619.595 580.628C621.107 577.751 621.519 578.177 622.758 575.22C625.066 569.706 624.396 571.189 623.106 559.869C621.816 548.549 621.474 540.321 619.467 527.927C617.701 517.023 616.957 510.8 613.791 500.217C610.736 490.001 608.485 484.381 603.762 474.82C600.781 468.785 595.333 459.784 595.333 459.784L589.502 452.813L582.177 447.467L572.739 441.999L564.417 438.948L549.382 435.935L548.687 429.833L569.82 427.426C569.82 427.426 579.217 426.729 585.151 425.679C591.62 424.533 595.537 424.433 601.48 421.637C605.954 419.533 608.519 418.113 612.014 414.62C614.731 411.904 616.031 410.081 617.826 406.687C619.794 402.965 621.28 396.477 621.28 396.477C621.28 396.477 623.171 389.722 623.782 385.285C624.541 379.775 624.259 371.052 624.259 371.052L629.646 370.439C629.646 370.439 630.442 367.284 630.731 365.225C631.382 360.589 631.08 357.898 630.624 353.24C630.087 347.743 627.787 339.385 627.787 339.385L621.904 339.328C621.904 339.328 621.794 336.67 621.413 335.021C620.525 331.174 616.621 326.115 616.621 326.115L612.897 322.903L612.365 318.238C612.365 318.238 610.943 311.363 609.026 307.348C607.182 303.486 605.196 301.868 602.949 298.224C600.3 293.926 596.628 286.947 596.628 286.947L591.399 292.633L583.305 302.644L574.01 313.155L545.716 311.653L524.752 311.86L507.6 312.36C507.6 312.36 502.702 306.397 498.997 303.161C495.519 300.123 493.461 298.449 489.395 296.256C484.607 293.673 476.269 291.571 476.269 291.571C476.269 291.571 474.036 298.078 472.442 302.187C470.866 306.249 469.52 308.352 468.159 312.491C467.027 315.938 465.826 321.482 465.826 321.482C465.826 321.482 463.544 324.354 462.173 326.261C460.243 328.946 458.8 330.287 457.522 333.335C456.697 335.306 456.023 338.595 456.023 338.595L450.099 338.18L447.229 346.141L445.222 358.004Z" fill="#D9D9D9" stroke="white"/>
<path d="M518.716 569.668L518.512 565.762C518.496 565.458 518.437 565.261 518.336 565.17C518.235 565.079 518.033 565.042 517.73 565.058L510.899 565.416C509.637 565.482 508.972 564.884 508.906 563.621L508.68 559.307C508.614 558.045 509.212 557.381 510.474 557.315L518.695 556.884C519.957 556.818 520.622 557.416 520.688 558.678L520.817 561.147L518.181 561.285L518.065 559.08C518.048 558.76 517.99 558.563 517.89 558.488C517.789 558.397 517.587 558.36 517.283 558.376L512.034 558.651C511.715 558.668 511.51 558.726 511.419 558.827C511.343 558.911 511.314 559.113 511.33 559.433L511.529 563.22C511.546 563.539 511.596 563.745 511.681 563.836C511.781 563.911 511.991 563.94 512.311 563.924L519.117 563.567C520.38 563.501 521.044 564.099 521.11 565.361L521.342 569.795C521.409 571.057 520.811 571.722 519.548 571.788L511.304 572.22C510.041 572.286 509.377 571.688 509.311 570.426L509.182 567.957L511.818 567.819L511.934 570.024C511.95 570.343 512.001 570.549 512.086 570.641C512.186 570.715 512.396 570.745 512.715 570.728L518.012 570.45C518.316 570.434 518.513 570.384 518.605 570.299C518.696 570.198 518.733 569.988 518.716 569.668ZM528.581 559.658L534.117 559.368C535.38 559.302 536.044 559.9 536.11 561.162L536.62 570.893L534.079 571.026L533.583 561.559C533.567 561.256 533.509 561.058 533.408 560.967C533.307 560.877 533.105 560.839 532.801 560.855L528.152 561.099C527.864 561.114 527.66 561.189 527.539 561.323C527.417 561.442 527.364 561.653 527.38 561.956L527.42 562.723L527.396 562.725L527.848 571.353L525.284 571.487L524.674 559.863L527.239 559.729L527.28 560.52C527.428 559.983 527.862 559.696 528.581 559.658ZM542.473 563.905L548.968 563.565L548.821 560.761C548.805 560.457 548.747 560.26 548.646 560.169C548.545 560.078 548.343 560.041 548.039 560.056L543.03 560.319C542.711 560.336 542.506 560.395 542.415 560.495C542.34 560.596 542.31 560.797 542.326 561.101L542.473 563.905ZM541.542 558.979L549.331 558.571C550.594 558.505 551.258 559.103 551.324 560.365L551.559 564.847L542.547 565.319L542.709 568.411C542.726 568.73 542.777 568.936 542.862 569.028C542.962 569.103 543.172 569.132 543.491 569.115L548.452 568.855C548.756 568.839 548.954 568.789 549.045 568.704C549.136 568.603 549.173 568.393 549.157 568.073L549.092 566.851L551.609 566.719L551.687 568.205C551.753 569.467 551.155 570.131 549.893 570.197L542.151 570.603C540.889 570.669 540.225 570.071 540.159 568.809L539.748 560.972C539.682 559.709 540.28 559.045 541.542 558.979ZM557.476 563.119L563.971 562.778L563.824 559.974C563.808 559.671 563.75 559.473 563.649 559.383C563.548 559.292 563.346 559.254 563.042 559.27L558.033 559.533C557.714 559.549 557.508 559.608 557.418 559.709C557.343 559.809 557.313 560.011 557.329 560.315L557.476 563.119ZM556.545 558.193L564.334 557.785C565.597 557.718 566.261 558.316 566.327 559.579L566.562 564.061L557.55 564.533L557.712 567.625C557.729 567.944 557.78 568.15 557.865 568.241C557.965 568.316 558.175 568.345 558.494 568.329L563.455 568.069C563.759 568.053 563.957 568.002 564.048 567.917C564.139 567.817 564.176 567.606 564.159 567.287L564.095 566.064L566.612 565.933L566.69 567.418C566.756 568.681 566.158 569.345 564.896 569.411L557.154 569.817C555.892 569.883 555.228 569.285 555.162 568.023L554.751 560.185C554.685 558.923 555.283 558.259 556.545 558.193ZM511.381 606.262L510.541 590.228L513.106 590.094L513.946 606.128L511.381 606.262ZM522.947 594L517.281 600.065L523.557 605.624L520.417 605.789L514.261 600.223L519.832 594.163L522.947 594Z" fill="black"/>
<path d="M463.509 376.797C463.004 387.839 460.96 394.151 466.473 402.813C475.433 416.891 490.519 416.922 507.683 419.157C521.6 420.97 528.274 420.637 541.606 420.607C563.279 420.069 575.197 418.953 595.733 414.44C603.188 409.778 606.461 405.588 610.671 395.168C610.671 395.168 613.248 376.079 611.527 364.032C609.547 350.172 608.699 335.657 599.681 330.242C590.663 324.828 582.152 325.837 563.768 324.378C545.385 322.919 534.807 323.508 515.053 322.901C501.245 323.117 493.603 323.995 480.096 326.884C473.442 333.142 470.857 337.574 468.109 346.99L463.509 376.797Z" fill="black"/>
<path d="M535.707 552.104L534.352 551.506L533.266 550.745L532.798 550.391L532.309 549.836L531.912 549.474L531.657 549.097L531.493 548.912L531.316 548.595L531.061 548.218L530.799 547.774L530.693 547.448L530.509 547.064L530.325 546.679L530.212 546.288L530.163 545.822L530.029 545.23L529.987 544.83L529.945 544.431L529.939 543.691L529.961 543.218L530.118 542.663L530.211 542.182L530.376 541.693L530.547 541.272L530.839 540.635L531.01 540.213L531.323 539.776L531.444 539.562L531.758 539.125L532.071 538.688L532.462 538.311L532.725 538.081L533.052 537.777L533.522 537.459L533.984 537.074L534.389 536.829L534.724 536.592L535.2 536.34L535.818 536.073L536.373 535.88L536.927 535.687L538.128 535.494L538.902 535.345L539.904 535.307L540.621 535.299L541.857 535.439L542.517 535.571L543.625 535.858L544.526 536.235L545.058 536.515L545.598 536.863L546.215 537.269L547.002 537.927L547.406 538.355L547.811 538.784L548.222 539.279L548.392 539.531L548.923 540.484L549.121 541.002L549.241 541.461L549.333 541.653L549.467 542.244L549.53 542.844L549.65 543.302L549.678 543.568L549.634 544.515L549.555 545.129L549.519 545.47L549.305 546.165L549.141 546.654L548.969 547.076L548.307 548.29L547.994 548.726L547.296 549.607L546.905 549.985L546.514 550.363L544.836 551.481" stroke="#77DB8D" stroke-width="5"/>
<path d="M537.032 549.461L536.122 548.978L535.404 548.39L535.096 548.118L534.781 547.704L534.522 547.429L534.362 547.151L534.257 547.013L534.148 546.779L533.988 546.501L533.825 546.175L533.766 545.939L533.655 545.659L533.544 545.378L533.482 545.095L533.467 544.763L533.399 544.337L533.387 544.052L533.374 543.767L533.401 543.243L533.436 542.908L533.567 542.521L533.651 542.185L533.785 541.846L533.92 541.554L534.148 541.116L534.283 540.824L534.518 540.529L534.61 540.382L534.844 540.086L535.078 539.79L535.364 539.54L535.555 539.389L535.793 539.188L536.13 538.983L536.465 538.73L536.754 538.575L536.995 538.422L537.334 538.264L537.771 538.102L538.161 537.99L538.552 537.878L539.388 537.794L539.928 537.722L540.621 537.74L541.116 537.766L541.962 537.919L542.413 538.042L543.165 538.295L543.771 538.602L544.126 538.824L544.484 539.094L544.893 539.409L545.409 539.91L545.67 540.232L545.931 540.554L546.194 540.923L546.301 541.109L546.628 541.808L546.743 542.184L546.807 542.515L546.863 542.655L546.931 543.08L546.949 543.508L547.013 543.838L547.021 544.028L546.952 544.697L546.872 545.129L546.833 545.369L546.656 545.853L546.523 546.192L546.388 546.483L545.88 547.314L545.646 547.61L545.129 548.204L544.843 548.454L544.558 548.705L543.354 549.423" stroke="white" stroke-width="2"/>
<rect width="559" height="186" transform="translate(263 480)" fill="#9A6AFF"/>
<path d="M393.08 589.24V578.808C393.08 577.997 392.952 577.464 392.696 577.208C392.44 576.952 391.907 576.824 391.096 576.824H372.856C369.485 576.824 367.8 575.139 367.8 571.768V560.248C367.8 556.877 369.485 555.192 372.856 555.192H394.808C398.179 555.192 399.864 556.877 399.864 560.248V566.84H392.824V560.952C392.824 560.099 392.696 559.565 392.44 559.352C392.184 559.096 391.651 558.968 390.84 558.968H376.824C375.971 558.968 375.416 559.096 375.16 559.352C374.947 559.565 374.84 560.099 374.84 560.952V571.064C374.84 571.917 374.947 572.472 375.16 572.728C375.416 572.941 375.971 573.048 376.824 573.048H395C398.371 573.048 400.056 574.733 400.056 578.104V589.944C400.056 593.315 398.371 595 395 595H372.984C369.613 595 367.928 593.315 367.928 589.944V583.352H374.968V589.24C374.968 590.093 375.075 590.648 375.288 590.904C375.544 591.117 376.099 591.224 376.952 591.224H391.096C391.907 591.224 392.44 591.117 392.696 590.904C392.952 590.648 393.08 590.093 393.08 589.24ZM420.747 563.96H435.531C438.902 563.96 440.587 565.645 440.587 569.016V595H433.803V569.72C433.803 568.909 433.675 568.376 433.419 568.12C433.163 567.864 432.63 567.736 431.819 567.736H419.403C418.635 567.736 418.08 567.907 417.739 568.248C417.398 568.547 417.227 569.101 417.227 569.912V571.96H417.163V595H410.315V563.96H417.163V566.072C417.632 564.664 418.827 563.96 420.747 563.96ZM457.15 577.208H474.494V569.72C474.494 568.909 474.366 568.376 474.11 568.12C473.854 567.864 473.32 567.736 472.51 567.736H459.134C458.28 567.736 457.726 567.864 457.47 568.12C457.256 568.376 457.15 568.909 457.15 569.72V577.208ZM455.358 563.96H476.158C479.528 563.96 481.214 565.645 481.214 569.016V580.984H457.15V589.24C457.15 590.093 457.256 590.648 457.47 590.904C457.726 591.117 458.28 591.224 459.134 591.224H472.382C473.192 591.224 473.726 591.117 473.982 590.904C474.238 590.648 474.366 590.093 474.366 589.24V585.976H481.086V589.944C481.086 593.315 479.4 595 476.03 595H455.358C451.987 595 450.302 593.315 450.302 589.944V569.016C450.302 565.645 451.987 563.96 455.358 563.96ZM497.212 577.208H514.556V569.72C514.556 568.909 514.428 568.376 514.172 568.12C513.916 567.864 513.383 567.736 512.572 567.736H499.196C498.343 567.736 497.788 567.864 497.532 568.12C497.319 568.376 497.212 568.909 497.212 569.72V577.208ZM495.42 563.96H516.22C519.591 563.96 521.276 565.645 521.276 569.016V580.984H497.212V589.24C497.212 590.093 497.319 590.648 497.532 590.904C497.788 591.117 498.343 591.224 499.196 591.224H512.444C513.255 591.224 513.788 591.117 514.044 590.904C514.3 590.648 514.428 590.093 514.428 589.24V585.976H521.148V589.944C521.148 593.315 519.463 595 516.092 595H495.42C492.049 595 490.364 593.315 490.364 589.944V569.016C490.364 565.645 492.049 563.96 495.42 563.96ZM531.003 595V552.184H537.851V595H531.003ZM563.515 563.96L547.579 579.32L563.515 595H555.131L539.515 579.32L555.195 563.96H563.515ZM577.931 591.224H598.155V595H570.955V555.192H577.931V591.224ZM613.571 591.224H625.987C626.755 591.224 627.31 591.075 627.651 590.776C627.992 590.435 628.163 589.859 628.163 589.048V569.912C628.163 569.101 627.992 568.547 627.651 568.248C627.31 567.907 626.755 567.736 625.987 567.736H613.571C612.718 567.736 612.163 567.864 611.907 568.12C611.694 568.376 611.587 568.909 611.587 569.72V589.24C611.587 590.093 611.694 590.648 611.907 590.904C612.163 591.117 612.718 591.224 613.571 591.224ZM628.163 563.96H635.011V595H628.163V593.016C627.608 594.339 626.435 595 624.643 595H609.795C606.424 595 604.739 593.315 604.739 589.944V569.016C604.739 565.645 606.424 563.96 609.795 563.96H624.643C626.435 563.96 627.608 564.621 628.163 565.944V563.96ZM656.31 563.96H671.094C674.464 563.96 676.15 565.645 676.15 569.016V595H669.366V569.72C669.366 568.909 669.238 568.376 668.982 568.12C668.726 567.864 668.192 567.736 667.382 567.736H654.966C654.198 567.736 653.643 567.907 653.302 568.248C652.96 568.547 652.79 569.101 652.79 569.912V571.96H652.726V595H645.878V563.96H652.726V566.072C653.195 564.664 654.39 563.96 656.31 563.96ZM694.696 591.224H707.112C707.88 591.224 708.435 591.075 708.776 590.776C709.117 590.435 709.288 589.859 709.288 589.048V569.912C709.288 569.101 709.117 568.547 708.776 568.248C708.435 567.907 707.88 567.736 707.112 567.736H694.696C693.843 567.736 693.288 567.864 693.032 568.12C692.819 568.376 692.712 568.909 692.712 569.72V589.24C692.712 590.093 692.819 590.648 693.032 590.904C693.288 591.117 693.843 591.224 694.696 591.224ZM716.136 593.912H716.2V598.968C716.2 602.339 714.515 604.024 711.144 604.024H687.08V600.248H707.368C708.221 600.248 708.755 600.12 708.968 599.864C709.224 599.608 709.352 599.075 709.352 598.264V594.616H709.288V593.016C708.733 594.339 707.56 595 705.768 595H690.92C687.549 595 685.864 593.315 685.864 589.944V569.016C685.864 565.645 687.549 563.96 690.92 563.96H705.768C707.56 563.96 708.733 564.621 709.288 565.944V563.96H716.136V593.912Z" fill="white"/>
</svg>
